# xmcd
# 
# Track frame offsets:
#     150
#     13560
#     26740
#     43550
#     53320
#     68230
#     81600
#     96440
#     106840
#     122335
#     142225
#     151985
#     177312
#     194977
#     202915
#     220855
#     237315
#     248197
#     259377
#     276087
# 
# Disc length: 3855
# 
# Revision: 5
# Processed by: cddbd v1.5.2PL0 Copyright (c) Steve Scherf et al.
# Submitted via: fre:ac v1.0.27
# 
DISCID=260f0d14
DTITLE=Atahualpa Yupanqui - Chansons
DYEAR=0
DGENRE=Latin
TTITLE0=Duerme Negrito (arullo)
TTITLE1=Los ejes de mi carreta (milonga)
TTITLE2=Preguntitas sobre dios (canción)
TTITLE3=La del campo (chacarera)
TTITLE4=Nada más (Homage à Ernesto Guevara)
TTITLE5=Trabajo, Quiero trabajo (canción)
TTITLE6=Punay (canción india)
TTITLE7=El poeta
TTITLE8=Hui, Jo Jo Jo
TTITLE9=Campesino (canción)
TTITLE10=De aquellos cerros vengo
TTITLE11=Basta Ya
TTITLE12=Soy libre, soy bueno (baguala andina)
TTITLE13=El tulumbano (gato)
TTITLE14=Cancion para Pablo Neruda
TTITLE15=Camino del indio (canción)
TTITLE16=La olvidada (chacarera)
TTITLE17=Danza de la paloma enamorada (danza)
TTITLE18=Pobrecito soy (canción)
TTITLE19=Guitarra de pobre (zamba)
EXTD=Le chant du Monde\nLDX 274750\nCM 211 ID3G: 80
EXTT0=
EXTT1=
EXTT2=
EXTT3=
EXTT4=
EXTT5=
EXTT6=
EXTT7=
EXTT8=
EXTT9=
EXTT10=
EXTT11=
EXTT12=
EXTT13=
EXTT14=
EXTT15=
EXTT16=
EXTT17=
EXTT18=
EXTT19=
PLAYORDER=
